<?xml version="1.0" encoding="UTF-8" standalone="no"?>
<!-- Created with Inkscape (http://www.inkscape.org/) -->

<svg
   xmlns:dc="http://purl.org/dc/elements/1.1/"
   xmlns:cc="http://creativecommons.org/ns#"
   xmlns:rdf="http://www.w3.org/1999/02/22-rdf-syntax-ns#"
   xmlns:svg="http://www.w3.org/2000/svg"
   xmlns="http://www.w3.org/2000/svg"
   xmlns:sodipodi="http://sodipodi.sourceforge.net/DTD/sodipodi-0.dtd"
   xmlns:inkscape="http://www.inkscape.org/namespaces/inkscape"
   width="74.427208mm"
   height="216.6188mm"
   viewBox="0 0 74.427208 216.6188"
   version="1.1"
   id="svg8"
   inkscape:version="0.92.1 r15371"
   sodipodi:docname="horn.svg">
  <defs
     id="defs2" />
  <sodipodi:namedview
     id="base"
     pagecolor="#ffffff"
     bordercolor="#666666"
     borderopacity="1.0"
     inkscape:pageopacity="0.0"
     inkscape:pageshadow="2"
     inkscape:zoom="5.6"
     inkscape:cx="51.251461"
     inkscape:cy="758.83367"
     inkscape:document-units="mm"
     inkscape:current-layer="g4496"
     showgrid="false"
     fit-margin-top="0"
     fit-margin-left="0"
     fit-margin-right="0"
     fit-margin-bottom="0"
     inkscape:window-width="1920"
     inkscape:window-height="1017"
     inkscape:window-x="1912"
     inkscape:window-y="-8"
     inkscape:window-maximized="1" />
  <metadata
     id="metadata5">
    <rdf:RDF>
      <cc:Work
         rdf:about="">
        <dc:format>image/svg+xml</dc:format>
        <dc:type
           rdf:resource="http://purl.org/dc/dcmitype/StillImage" />
        <dc:title></dc:title>
      </cc:Work>
    </rdf:RDF>
  </metadata>
  <g
     inkscape:label="Layer 1"
     inkscape:groupmode="layer"
     id="layer1"
     transform="translate(-65.70945,-54.225178)">
    <g
       id="g4496"
       transform="translate(-2.0745834e-6,-6.4144685)">
      <path
         style="fill:#323232;stroke-width:0.35277778"
         d="m 130.84276,276.37506 c -0.87313,-0.26539 -6.70424,-1.99997 -7.41437,-2.12225 -7.9387,-1.36693 -15.28522,-9.49737 -15.3116,-15.05673 -0.0996,-20.98205 -14.298426,-38.29529 -31.209866,-38.29529 -1.604998,0 -1.640546,-4.56968 -7.196519,-41.03945 -1.355688,-8.89882 -2.46011,-15.45104 -2.601258,-17.23188 -0.194006,-2.44774 -0.93704,-2.76205 0.255134,-2.44213 5.365552,1.43984 12.722038,0.14108 16.064117,-2.50068 10.634225,-8.40587 3.606583,-39.43544 -10.868726,-45.13741 -1.982325,-0.78085 -2.556509,0.37618 -3.225323,-3.85063 -1.887047,-11.925887 -1.387059,-21.279221 -0.38102,-41.823114 0.120554,-2.461775 0.491202,-2.21507 0.715205,-0.960137 5.232641,29.314777 18.544055,52.144011 34.983026,61.576771 3.62666,2.08099 2.7389,-2.74062 0.41521,24.16156 -2.07606,24.03536 -1.0075,22.43128 -2.38393,22.08283 -19.42517,-4.16647 -25.973501,11.73645 -15.060316,27.13131 7.602117,10.72405 20.650936,13.19871 31.877656,6.26493 2.2339,-1.37969 2.69198,-0.10852 4.88057,3.45963 11.76776,19.35868 15.13501,27.72398 15.08823,50.0148 -0.0279,13.31652 -0.1665,12.84093 -1.88418,14.37522 -1.43332,1.28029 -4.1311,2.18624 -6.74204,1.39265 z"
         id="path4500"
         inkscape:connector-curvature="0"
         sodipodi:nodetypes="cccssscscssscscssccsc" />
      <path
         style="fill:#1d1d1d;stroke-width:0.35277778"
         d="m 129.11667,276.94319 c -1.06716,-0.25907 -2.65466,-0.64631 -3.52778,-0.86053 -8.51719,-2.08971 -18.68518,-11.10067 -18.70652,-16.5779 -0.0796,-20.4272 -10.033618,-33.72307 -27.430266,-36.63939 -3.781273,-0.63388 -3.781273,-0.63388 -4.578156,-5.36877 -1.721323,-10.22768 -9.264015,-58.29159 -9.163501,-58.3921 0.0587,-0.0587 1.530057,0.14125 3.269671,0.44434 12.098655,2.10794 19.020558,-3.83973 18.951759,-16.28436 -0.06808,-12.31492 -7.214077,-25.59863 -16.10239,-29.93276 -2.597683,-1.26668 -2.597683,-1.26668 -3.166329,-5.06974 -1.761575,-11.781234 -1.878016,-26.476725 -0.356581,-45.002038 0.124047,-1.510415 0.28357,-2.688179 0.354496,-2.617253 0.07093,0.07093 1.000707,3.493926 2.066181,7.606666 8.669849,33.465755 18.261626,49.872995 34.302936,58.676975 1.41187,0.77488 2.56703,1.53259 2.56703,1.6838 0,1.14056 -3.91142,45.3181 -4.02222,45.42889 -0.0782,0.0782 -1.74071,-0.0515 -3.694374,-0.28826 -13.699529,-1.66035 -20.431287,7.62565 -15.098744,20.82768 6.198729,15.34651 21.906048,20.50127 34.745498,11.40263 1.22582,-0.86868 2.29106,-1.51713 2.36719,-1.441 3.56504,3.56504 13.15084,23.26604 15.51166,31.88 2.87129,10.47651 3.73743,35.66748 1.33747,38.89927 -1.17733,1.58539 -6.25649,2.44213 -9.62703,1.62385 z m 6.6468,-3.23912 c 1.63895,-1.3801 2.30332,-7.01845 2.06802,-17.5507 -0.3329,-14.9012 -3.86758,-26.44848 -12.50257,-40.84407 -4.20142,-7.00429 -4.04089,-6.87621 -6.79559,-5.42182 -1.26118,0.66587 -3.27293,1.56206 -4.47056,1.99155 -2.4542,0.88011 -2.62462,1.13182 -3.46375,5.11601 -1.12832,5.35728 -0.53618,11.92751 1.62743,18.05749 1.30883,3.70819 1.36593,3.6655 -1.88048,1.40584 -6.08707,-4.2369 -9.35616,-4.98756 -7.32177,-1.68125 3.26144,5.30051 5.5711,13.68846 6.17746,22.43459 0.70331,10.1444 19.92618,22.07999 26.56181,16.49236 z m -26.1487,-40.56945 c -0.0986,-0.53357 -0.43408,-2.21441 -0.7456,-3.7352 -0.69714,-3.40332 -0.71111,-8.99774 -0.0318,-12.75716 0.28045,-1.55222 0.51304,-2.91848 0.51686,-3.03614 0.004,-0.11765 -1.62025,-0.30272 -3.60903,-0.41125 -11.135482,-0.60767 -20.891817,-9.27306 -23.907612,-21.23427 -0.877841,-3.48168 -0.556164,-3.22778 -4.709262,-3.71699 -4.541397,-0.53496 -4.33741,-1.2705 -2.691571,9.70533 3.244377,21.63625 3.30629,21.88382 5.551325,22.19962 6.795622,0.95589 13.193738,3.92627 17.912321,8.31595 1.670289,1.55387 2.536029,2.11248 3.273949,2.11248 1.69964,0 4.50585,1.00671 6.29979,2.26001 2.11957,1.4808 2.36556,1.515 2.14069,0.29762 z M 80.799472,186.12699 c 0.365658,-0.72914 1.091435,-5.63664 0.883394,-5.97326 -0.287517,-0.46521 -10.064595,-7.4323 -10.429921,-7.4323 -0.568797,0 0.932216,12.33053 1.579849,12.97817 0.780824,0.78082 7.605815,1.14696 7.966678,0.42739 z m 3.303055,-9.47454 c 1.782844,-2.57264 5.457913,-4.58027 9.471777,-5.17427 2.23594,-0.33088 2.337798,-0.0982 -3.101161,-7.08466 -5.268457,-6.76745 -5.023689,-6.58663 -6.802141,-5.02512 -2.980852,2.61722 -8.14397,3.78822 -12.409893,2.81458 -0.873125,-0.19928 -1.711202,-0.23864 -1.862388,-0.0875 -0.297981,0.29794 0.691532,7.11947 1.090288,7.51625 4.900506,4.87622 12.418857,8.76457 13.613518,7.04068 z m 17.268543,-5.50881 c 0.45794,-1.19339 1.41817,-15.01297 1.06751,-15.36363 -0.39972,-0.39971 -12.302428,-3.87247 -13.272718,-3.87247 -0.628622,0 -2.385194,3.10825 -2.379867,4.21116 0.0052,1.07801 11.198232,14.99572 12.254893,15.23808 1.629642,0.37376 2.122252,0.3287 2.330182,-0.21314 z m 1.48117,-17.85333 c 0.31367,-0.50753 1.62692,-15.18944 1.40935,-15.7564 -0.97984,-2.55343 -14.697777,-0.18376 -14.474194,2.50031 0.146982,1.76449 0.0757,4.24734 -0.17798,6.19915 -0.513044,3.94741 -1.229744,3.31475 6.258987,5.52505 7.267017,2.14485 6.684027,2.01698 6.983837,1.53189 z m 1.73369,-18.75708 c 0.81155,-3.63615 0.61109,-4.07509 -3.16232,-6.92428 C 86.391533,116.25869 76.228142,99.144751 70.957699,76.307983 c -0.528303,-2.289131 -1.112722,-4.158851 -1.29871,-4.154934 -1.395694,0.0294 -0.747987,32.539911 0.738513,37.068381 0.09553,0.29104 1.420209,1.21614 2.943715,2.05578 7.442175,4.10155 12.77849,11.7187 15.538232,22.17956 0.460318,1.74484 0.191858,1.69542 9.803412,1.80496 5.674629,0.0647 5.727499,0.0582 5.903069,-0.7285 z"
         id="path4498"
         inkscape:connector-curvature="0" />
    </g>
  </g>
</svg>
